<svg id="Capa_1" enable-background="new 0 0 512 512" height="512" viewBox="0 0 512 512" width="512" xmlns="http://www.w3.org/2000/svg"><g><g><path d="m377.728 108.603 9.978 20.217c.678 1.373 1.988 2.325 3.503 2.545l22.311 3.242c3.816.554 5.34 5.244 2.578 7.935l-16.145 15.737c-1.096 1.069-1.597 2.609-1.338 4.118l3.811 22.221c.652 3.801-3.337 6.699-6.75 4.904l-19.956-10.491c-1.355-.713-2.974-.713-4.33 0l-19.956 10.491c-3.413 1.794-7.402-1.104-6.75-4.904l3.811-22.221c.259-1.509-.242-3.049-1.338-4.118l-16.145-15.737c-2.761-2.692-1.238-7.381 2.578-7.935l22.311-3.242c1.515-.22 2.825-1.172 3.503-2.545l9.978-20.217c1.708-3.457 6.639-3.457 8.346 0z" fill="#fed402"/></g><g><g><path d="m367.71 176.17 3.811-22.221c.259-1.509-.242-3.049-1.338-4.118l-16.145-15.737c-.682-.665-1.101-1.453-1.29-2.269l-19.157 2.784c-3.816.555-5.34 5.244-2.578 7.935l16.144 15.737c1.097 1.069 1.597 2.609 1.338 4.118l-3.811 22.221c-.652 3.801 3.337 6.699 6.75 4.904l17.6-9.253c-1.022-.999-1.604-2.465-1.324-4.101z" fill="#fac600"/></g></g><g><g><path d="m484.228 205.824c-13.743 4.526-18.798 9.581-23.324 23.324-.626 1.901-3.334 1.901-3.96 0-4.526-13.743-9.581-18.798-23.324-23.324-1.901-.626-1.901-3.334 0-3.96 13.743-4.526 18.798-9.581 23.324-23.324.626-1.901 3.334-1.901 3.96 0 4.526 13.743 9.581 18.798 23.324 23.324 1.901.626 1.901 3.334 0 3.96z" fill="#fed402"/></g></g><path d="m436.417 77.596h-4.968v-4.968c0-4.142-3.357-7.5-7.5-7.5s-7.5 3.358-7.5 7.5v4.968h-4.969c-4.143 0-7.5 3.358-7.5 7.5s3.357 7.5 7.5 7.5h4.969v4.968c0 4.142 3.357 7.5 7.5 7.5s7.5-3.358 7.5-7.5v-4.968h4.968c4.143 0 7.5-3.358 7.5-7.5s-3.357-7.5-7.5-7.5z" fill="#fac600"/><path d="m294.04 163.919h-4.969v-4.968c0-4.142-3.357-7.5-7.5-7.5s-7.5 3.358-7.5 7.5v4.968h-4.968c-4.143 0-7.5 3.358-7.5 7.5s3.357 7.5 7.5 7.5h4.968v4.968c0 4.142 3.357 7.5 7.5 7.5s7.5-3.358 7.5-7.5v-4.968h4.969c4.143 0 7.5-3.358 7.5-7.5s-3.357-7.5-7.5-7.5z" fill="#fed402"/><g><g fill="#f3f0f3"><path d="m386.669 39.021-21.041-36.445c-1.422-2.464-4.573-3.308-7.036-1.885l-48.726 28.132 2.065 1.589 66.654 17.86 2.839-.274 3.359-1.94c2.465-1.423 3.309-4.573 1.886-7.037z"/><path d="m151.649 124.313-6.126-.607-53.457 30.864 2.716 1.763 65.065 17.434 3.777-.023 53.458-30.864-2.072-1.59z"/><path d="m265.669 62.811-11.246-1.978-53.457 30.863 2.235 1.634 65.169 17.463 4.154.077 53.457-30.863-6.032-2.652z"/></g><path d="m409.971 231.998h-6.696l-3.825 2.411-47.754 47.754-.805 2.22h64.251v-47.214c-.001-2.856-2.316-5.171-5.171-5.171z" fill="#433f43"/><path d="m290.37 282.296 47.446-47.445 1.439-2.853h-61.727l-3.495 2.08-47.754 47.755-1.136 2.55h61.727l.001-.001z" fill="#433f43"/><path d="m411.06 283.382h-380.225l-4.489 1v217.278c0 5.711 4.629 10.34 10.34 10.34h368.115c5.71 0 10.34-4.629 10.34-10.34v-217.277z" fill="#554e56"/><g><g><path d="m200.966 91.696 71.558 19.174-55.443 32.01-71.558-19.174z" fill="#433f43"/></g><g><path d="m309.866 28.823 71.558 19.174-55.442 32.01-71.559-19.174z" fill="#433f43"/></g><path d="m92.066 154.57-65.719 37.943 2 1h58.977c8.402 0 16.156 4.204 20.742 11.244l1.371.272 54.188-31.285z" fill="#433f43"/></g><path d="m74.272 501.66v-217.277h-47.926v217.277c0 5.711 4.629 10.34 10.34 10.34h47.926c-5.71 0-10.34-4.629-10.34-10.34z" fill="#433f43"/><g><g><g fill="#433f43"><rect height="52.384" width="0" x="26.346" y="231.998"/><path d="m213.508 231.998h-87.699l32.763 50.301 2.551 2.084h.001l2.713-1.001h-.3l49.858-49.857z"/></g><g><path d="m339.255 231.998-52.385 52.385h64.02l52.384-52.385z" fill="#f3f0f3"/></g></g><g><g><path d="m213.508 231.998-52.385 52.385h64.02l52.385-52.385z" fill="#f3f0f3"/></g></g></g><g><path d="m161.123 284.383h-134.777v-91.87h60.977c8.709 0 16.827 4.401 21.58 11.698z" fill="#918291"/></g><g><path d="m26.346 192.513h47.926v91.87h-47.926z" fill="#7a6d79"/></g><g><circle cx="54.789" cy="218.348" fill="#f3f0f3" r="7.5"/></g><g><circle cx="54.789" cy="255.571" fill="#f3f0f3" r="7.5"/></g><g><circle cx="110.624" cy="255.571" fill="#f3f0f3" r="7.5"/></g><g><path d="m386.603 481.898h-331.718c-4.143 0-7.5-3.358-7.5-7.5s3.357-7.5 7.5-7.5h331.718c4.143 0 7.5 3.358 7.5 7.5s-3.358 7.5-7.5 7.5z" fill="#f3f0f3"/></g><g><path d="m386.603 388.205h-93.458v-65.985h93.458c4.143 0 7.5-3.358 7.5-7.5s-3.357-7.5-7.5-7.5h-331.718c-4.143 0-7.5 3.358-7.5 7.5s3.357 7.5 7.5 7.5h93.457v65.984h-93.457c-4.143 0-7.5 3.358-7.5 7.5s3.357 7.5 7.5 7.5h331.718c4.143 0 7.5-3.358 7.5-7.5s-3.358-7.499-7.5-7.499zm-223.261-65.985h114.803v65.984h-114.803z" fill="#918291"/><path d="m386.603 427.751h-331.718c-4.143 0-7.5 3.358-7.5 7.5s3.357 7.5 7.5 7.5h331.718c4.143 0 7.5-3.358 7.5-7.5s-3.358-7.5-7.5-7.5z" fill="#f3f0f3"/></g><g><g><path d="m121.846 361.882h-42.238c-4.143 0-7.5-3.358-7.5-7.5s3.357-7.5 7.5-7.5h42.237c4.143 0 7.5 3.358 7.5 7.5s-3.357 7.5-7.499 7.5z" fill="#f3f0f3"/></g></g><g><g><path d="m241.862 349.005h-42.237c-4.143 0-7.5-3.358-7.5-7.5s3.357-7.5 7.5-7.5h42.237c4.143 0 7.5 3.358 7.5 7.5s-3.357 7.5-7.5 7.5z" fill="#f3f0f3"/></g><g><path d="m241.862 374.76h-42.237c-4.143 0-7.5-3.358-7.5-7.5s3.357-7.5 7.5-7.5h42.237c4.143 0 7.5 3.358 7.5 7.5s-3.357 7.5-7.5 7.5z" fill="#f3f0f3"/></g></g><g><g><path d="m365.999 361.882h-42.237c-4.143 0-7.5-3.358-7.5-7.5s3.357-7.5 7.5-7.5h42.237c4.143 0 7.5 3.358 7.5 7.5s-3.357 7.5-7.5 7.5z" fill="#f3f0f3"/></g></g></g></g></svg>