<svg id="Capa_1" enable-background="new 0 0 512 512" height="512" viewBox="0 0 512 512" width="512" xmlns="http://www.w3.org/2000/svg"><g><g><g><path d="m382.841 45.374-20.425-35.376c-1.381-2.392-4.438-3.211-6.83-1.83l-322.511 186.201.002.003h59.188c8.453 0 16.334 4.272 20.948 11.355l.516.792 267.282-154.314c2.391-1.381 3.211-4.439 1.83-6.831z" fill="#fff"/><g><path d="m202.578 96.507 69.462 18.612-53.818 31.072-69.462-18.612z" fill="#433f43"/></g><g><path d="m308.288 35.475 69.462 18.612-53.819 31.072-69.462-18.612z" fill="#433f43"/></g><path d="m92.265 194.373c8.453 0 16.334 4.272 20.948 11.355l.516.792 52.602-30.37-69.462-18.612-63.794 36.831.002.003h59.188z" fill="#433f43"/></g><path d="m33.075 282.551v211.912c0 5.543 4.494 10.037 10.037 10.037h357.33c5.543 0 10.037-4.494 10.037-10.037v-211.912z" fill="#554e56"/><path d="m79.596 494.463v-210.912h-46.522v210.912c0 5.543 4.494 10.037 10.037 10.037h46.522c-5.543 0-10.037-4.494-10.037-10.037z" fill="#433f43"/><g><path d="m163.903 283.551h-130.828v-89.178h59.19c8.453 0 16.334 4.272 20.948 11.355z" fill="#918291"/></g><g><path d="m405.46 232.701h-274.678l33.121 50.85h246.575v-45.831c0-2.772-2.247-5.019-5.018-5.019z" fill="#433f43"/><g><g><path d="m214.753 232.701-50.85 50.85h62.144l50.85-50.85z" fill="#fff"/></g><g><path d="m336.816 232.701-50.85 50.85h62.144l50.85-50.85z" fill="#fff"/></g></g></g><g><path d="m33.075 194.373h46.097v89.178h-46.097z" fill="#7a6d79"/></g><g><path d="m374.161 112.922 9.686 19.625c.658 1.333 1.929 2.257 3.4 2.47l21.658 3.147c3.704.538 5.183 5.09 2.503 7.703l-15.672 15.276c-1.064 1.038-1.55 2.532-1.299 3.997l3.7 21.57c.633 3.689-3.239 6.502-6.553 4.761l-19.371-10.184c-1.316-.692-2.887-.692-4.203 0l-19.371 10.184c-3.313 1.742-7.185-1.072-6.553-4.761l3.7-21.57c.251-1.465-.234-2.96-1.299-3.997l-15.672-15.276c-2.68-2.613-1.201-7.165 2.503-7.703l21.658-3.147c1.471-.214 2.742-1.138 3.4-2.47l9.686-19.625c1.657-3.357 6.443-3.357 8.099 0z" fill="#fed402"/></g><g><g><path d="m364.438 178.508 3.699-21.57c.251-1.465-.235-2.96-1.299-3.997l-15.672-15.276c-.662-.646-1.069-1.41-1.252-2.203l-18.595 2.702c-3.704.538-5.183 5.09-2.503 7.703l15.671 15.276c1.064 1.038 1.55 2.532 1.299 3.997l-3.699 21.57c-.633 3.689 3.24 6.503 6.552 4.761l17.084-8.982c-.993-.969-1.558-2.392-1.285-3.981z" fill="#fac600"/></g></g></g><g><g><path d="m477.542 207.294c-13.34 4.393-18.247 9.3-22.641 22.641-.608 1.845-3.237 1.845-3.844 0-4.393-13.34-9.3-18.247-22.641-22.641-1.845-.608-1.845-3.237 0-3.844 13.34-4.393 18.247-9.3 22.641-22.641.608-1.845 3.237-1.845 3.844 0 4.393 13.34 9.3 18.247 22.641 22.641 1.845.607 1.845 3.236 0 3.844z" fill="#fed402"/></g></g><g><circle cx="60.684" cy="219.451" r="7.5"/><circle cx="60.684" cy="255.584" r="7.5"/><circle cx="114.883" cy="255.584" r="7.5"/><path d="m390.276 313c0-4.142-3.357-7.5-7.5-7.5h-322c-4.143 0-7.5 3.358-7.5 7.5s3.357 7.5 7.5 7.5h90.5v63.611h-90.5c-4.143 0-7.5 3.358-7.5 7.5s3.357 7.5 7.5 7.5h322c4.143 0 7.5-3.358 7.5-7.5s-3.357-7.5-7.5-7.5h-90.5v-63.611h90.5c4.143 0 7.5-3.358 7.5-7.5zm-113 71.111h-111v-63.611h111z"/><path d="m60.776 475.5h322c4.143 0 7.5-3.358 7.5-7.5s-3.357-7.5-7.5-7.5h-322c-4.143 0-7.5 3.358-7.5 7.5s3.358 7.5 7.5 7.5z"/><path d="m382.776 422.5h-87.776c-4.143 0-7.5 3.358-7.5 7.5s3.357 7.5 7.5 7.5h87.776c4.143 0 7.5-3.358 7.5-7.5s-3.357-7.5-7.5-7.5z"/><path d="m60.776 437.5h199.224c4.143 0 7.5-3.358 7.5-7.5s-3.357-7.5-7.5-7.5h-199.224c-4.143 0-7.5 3.358-7.5 7.5s3.358 7.5 7.5 7.5z"/><path d="m419.684 138.92c-1.424-4.382-5.14-7.516-9.7-8.178l-20.105-2.921-8.991-18.218c-2.039-4.132-6.167-6.698-10.774-6.698-4.608 0-8.736 2.566-10.775 6.698l-8.991 18.218-20.106 2.921c-4.559.663-8.275 3.796-9.699 8.178s-.259 9.101 3.04 12.318l14.549 14.181-3.434 20.023c-.779 4.542 1.053 9.045 4.78 11.753 2.105 1.53 4.569 2.308 7.051 2.308 1.909 0 3.829-.461 5.603-1.393l17.982-9.454 17.983 9.454c4.076 2.144 8.925 1.793 12.654-.915 3.728-2.708 5.559-7.211 4.779-11.752l-3.434-20.024 14.548-14.181c3.297-3.216 4.463-7.936 3.04-12.318zm-29.183 16.853c-2.832 2.76-4.124 6.736-3.455 10.636l2.677 15.611-14.021-7.371c-1.75-.92-3.669-1.38-5.59-1.38-1.92 0-3.841.46-5.593 1.38l-14.019 7.37 2.678-15.612c.668-3.898-.624-7.874-3.456-10.634l-11.343-11.056 15.674-2.277c3.914-.568 7.297-3.025 9.049-6.573l7.009-14.203 7.011 14.204c1.751 3.547 5.134 6.004 9.047 6.572l15.674 2.278z"/><path d="m125.776 359c4.143 0 7.5-3.358 7.5-7.5s-3.357-7.5-7.5-7.5h-41c-4.143 0-7.5 3.358-7.5 7.5s3.357 7.5 7.5 7.5z"/><path d="m201.276 346.5h41c4.143 0 7.5-3.358 7.5-7.5s-3.357-7.5-7.5-7.5h-41c-4.143 0-7.5 3.358-7.5 7.5s3.358 7.5 7.5 7.5z"/><path d="m242.276 356.5h-41c-4.143 0-7.5 3.358-7.5 7.5s3.357 7.5 7.5 7.5h41c4.143 0 7.5-3.358 7.5-7.5s-3.357-7.5-7.5-7.5z"/><path d="m321.776 344c-4.143 0-7.5 3.358-7.5 7.5s3.357 7.5 7.5 7.5h41c4.143 0 7.5-3.358 7.5-7.5s-3.357-7.5-7.5-7.5z"/><path d="m405.46 225.201h-270.612l-10.515-16.144 260.428-150.357c2.892-1.669 4.96-4.365 5.824-7.59s.421-6.594-1.249-9.485l-20.425-35.377c-3.444-5.968-11.104-8.022-17.075-4.575l-322.519 186.215c-2.236 1.298-3.743 3.713-3.743 6.484v300.09c0 9.67 7.867 17.537 17.537 17.537h357.33c9.67 0 17.537-7.867 17.537-17.537v-125.462c0-4.142-3.357-7.5-7.5-7.5s-7.5 3.358-7.5 7.5v125.463c0 1.399-1.138 2.537-2.537 2.537h-357.33c-1.399 0-2.537-1.138-2.537-2.537v-203.412h46.426c4.143 0 7.5-3.358 7.5-7.5s-3.357-7.5-7.5-7.5h-46.426v-74.178h51.69c5.94 0 11.422 2.971 14.664 7.949l43.138 66.229h-28.066c-4.143 0-7.5 3.358-7.5 7.5s3.357 7.5 7.5 7.5h31.99.01 248.979v42.949c0 4.142 3.357 7.5 7.5 7.5s7.5-3.358 7.5-7.5v-96.28c-.001-6.903-5.617-12.519-12.519-12.519zm-48.289-209.288 17.004 29.452-46.456-12.448zm-60.478 34.916 12.654-7.306 48.971 13.122-35.447 20.465-48.971-13.121zm-41.164 23.767 48.971 13.122-33.52 19.353-48.972-13.122zm-51.891 29.959 48.972 13.122-35.448 20.466-48.971-13.122zm-53.819 31.072 48.972 13.122-33.52 19.353-48.972-13.122zm-57.554 51.246h-31.206l36.869-21.286 48.971 13.122-31.279 18.059c-6.059-6.279-14.427-9.895-23.355-9.895zm52.353 53.328h52.028l-31.507 31.507zm37.392 35.85 35.85-35.85h40.931l-35.85 35.85zm62.143 0 35.85-35.85h38.705l-35.85 35.85zm59.919 0 35.85-35.85h40.932l-35.85 35.85zm98.906 0h-36.761l35.85-35.85h.912v35.85z"/><path d="m479.888 196.326c-11.052-3.64-14.224-6.812-17.863-17.866-1.289-3.909-4.924-6.535-9.046-6.535-.001 0-.001 0-.002 0-4.122.001-7.757 2.628-9.044 6.538-3.64 11.051-6.812 14.223-17.862 17.863-3.91 1.287-6.537 4.922-6.538 9.044 0 4.123 2.626 7.758 6.538 9.047 11.051 3.64 14.223 6.812 17.862 17.862 1.287 3.91 4.922 6.538 9.044 6.539h.002c4.121 0 7.757-2.626 9.047-6.538 3.639-11.051 6.811-14.223 17.862-17.863h.002c3.91-1.289 6.536-4.924 6.536-9.046-.001-4.123-2.628-7.758-6.538-9.045zm-26.91 19.487c-2.708-4.415-6.026-7.733-10.441-10.441 4.415-2.708 7.733-6.027 10.441-10.442 2.708 4.415 6.026 7.733 10.441 10.442-4.414 2.709-7.733 6.026-10.441 10.441z"/><path d="m406.926 97.603h4.603v4.603c0 4.142 3.357 7.5 7.5 7.5s7.5-3.358 7.5-7.5v-4.603h4.604c4.143 0 7.5-3.358 7.5-7.5s-3.357-7.5-7.5-7.5h-4.604v-4.603c0-4.142-3.357-7.5-7.5-7.5s-7.5 3.358-7.5 7.5v4.603h-4.603c-4.143 0-7.5 3.358-7.5 7.5s3.357 7.5 7.5 7.5z"/><path d="m280.822 193.5c4.143 0 7.5-3.358 7.5-7.5v-4.603h4.604c4.143 0 7.5-3.358 7.5-7.5s-3.357-7.5-7.5-7.5h-4.604v-4.603c0-4.142-3.357-7.5-7.5-7.5-4.142 0-7.5 3.358-7.5 7.5v4.603h-4.603c-4.143 0-7.5 3.358-7.5 7.5s3.357 7.5 7.5 7.5h4.603v4.603c0 4.142 3.358 7.5 7.5 7.5z"/></g></g></svg>