<svg id="Layer_3" height="512" viewBox="0 0 64 64" width="512" xmlns="http://www.w3.org/2000/svg" data-name="Layer 3"><path d="m8.08 32h51.92v30h-51.92z" fill="#ccc"/><path d="m8.08 32v26h44.92a3 3 0 0 0 3-3v-23z" fill="#f2f2f2"/><path d="m12 36h44v22h-44z" fill="#686868"/><path d="m12 36v18h37a3 3 0 0 0 3-3v-15z" fill="#868686"/><rect fill="#9e9e9e" height="10" rx="3" width="22" x="18" y="39"/><path d="m6 24h56v8h-56z" fill="#474747"/><g fill="#686868"><path d="m6 24v5h45a3 3 0 0 0 3-3v-2z"/><path d="m33 32 8-8h-10l-8 8z"/><path d="m51 24-8 8h11l8-8z"/><path d="m13 32 8-8h-15v8z"/></g><path d="m21 24h-15v5h10z" fill="#868686"/><path d="m36 29 5-5h-10l-5 5z" fill="#868686"/><path d="m51 29a3 3 0 0 0 3-3v-2h-3l-5 5z" fill="#868686"/><path d="m6 9h56v8h-56z" fill="#474747" transform="matrix(.966 -.26 .26 .966 -2.212 9.299)"/><path d="m5.924 16.427 1.3 4.827 43.45-11.714a3 3 0 0 0 2.116-3.677l-.521-1.931z" fill="#686868"/><path d="m34.076 17.122 5.641-9.806-9.655 2.603-5.642 9.807z" fill="#686868"/><path d="m49.373 4.713-5.642 9.806 10.621-2.863 5.641-9.807z" fill="#686868"/><path d="m14.765 22.329 5.642-9.807-14.483 3.905 2.083 7.724z" fill="#686868"/><path d="m20.407 12.522-14.483 3.905 1.302 4.827 9.655-2.603z" fill="#868686"/><path d="m36.191 13.445 3.526-6.129-9.655 2.603-3.526 6.129z" fill="#868686"/><path d="m50.674 9.54a3 3 0 0 0 2.116-3.677l-.521-1.931-2.9.781-3.526 6.129z" fill="#868686"/><path d="m2 18h10v10h-10z" fill="#686868"/><circle cx="7" cy="23" fill="#939393" r="2"/><path d="m53 52h-5.184a2.982 2.982 0 0 0 -5.632 0h-27.184v2h27.184a2.982 2.982 0 0 0 5.632 0h5.184zm-8 2a1 1 0 1 1 1-1 1 1 0 0 1 -1 1z" fill="#ccc"/><path d="m31 39v10l8-5z" fill="#aa2b24"/><path d="m53 43h-2v-2h-2v-2h3a1 1 0 0 1 1 1z" fill="#ccc"/><path d="m17 43h-2v-3a1 1 0 0 1 1-1h3v2h-2z" fill="#ccc"/><path d="m51 45h2v2h-2z" fill="#ccc"/><path d="m36 42.125-5-3.125v6h3a2 2 0 0 0 2-2z" fill="#d24034"/></svg>