<svg height="511pt" viewBox="-2 0 511 511.99985" width="511pt" xmlns="http://www.w3.org/2000/svg"><path d="m499.972656 268.832031h-477.222656c-4.347656 0-7.871094-3.523437-7.871094-7.871093v-74.578126c0-8.683593 7.0625-15.742187 15.742188-15.742187h461.480468c8.679688 0 15.742188 7.058594 15.742188 15.742187v74.578126c0 4.347656-3.523438 7.871093-7.871094 7.871093zm0 0" fill="#f4f4f5"/><path d="m492.101562 512h-461.480468c-8.679688 0-15.742188-7.0625-15.742188-15.742188v-235.296874c0-4.347657 3.523438-7.871094 7.871094-7.871094h477.222656c4.347656 0 7.871094 3.523437 7.871094 7.871094v235.296874c0 8.679688-7.0625 15.742188-15.742188 15.742188zm0 0" fill="#5b6aa5"/><path d="m499.972656 253.089844c4.347656 0 7.871094 3.523437 7.871094 7.871094v235.296874c0 8.679688-7.0625 15.742188-15.742188 15.742188h-230.742187v-258.910156zm0 0" fill="#32458f"/><path d="m378.441406 436.351562h-234.160156c-8.691406 0-15.742188-7.050781-15.742188-15.742187 0-8.695313 7.050782-15.742187 15.742188-15.742187h234.160156c8.691406 0 15.742188 7.046874 15.742188 15.742187 0 8.691406-7.050782 15.742187-15.742188 15.742187zm0 0" fill="#f4f4f5"/><path d="m378.441406 404.867188c8.691406 0 15.742188 7.046874 15.742188 15.742187 0 8.691406-7.050782 15.742187-15.742188 15.742187h-117.082031v-31.484374zm0 0" fill="#d1d1d4"/><path d="m378.441406 360.222656h-234.160156c-8.691406 0-15.742188-7.046875-15.742188-15.742187 0-8.691407 7.050782-15.742188 15.742188-15.742188h234.160156c8.691406 0 15.742188 7.050781 15.742188 15.742188 0 8.695312-7.050782 15.742187-15.742188 15.742187zm0 0" fill="#f4f4f5"/><path d="m378.441406 328.738281c8.691406 0 15.742188 7.050781 15.742188 15.742188 0 8.695312-7.050782 15.742187-15.742188 15.742187h-117.082031v-31.484375zm0 0" fill="#d1d1d4"/><path d="m492.101562 170.640625h-33.0625l-93.027343 98.191406h133.960937c4.347656 0 7.871094-3.523437 7.871094-7.871093v-74.578126c0-8.683593-7.0625-15.742187-15.742188-15.742187zm0 0" fill="#d1d1d4"/><path d="m358.371094 170.640625-93.027344 98.191406h100.667969l93.027343-98.191406zm0 0" fill="#32458f"/><path d="m257.703125 170.640625-93.027344 98.191406h100.667969l93.027344-98.191406zm0 0" fill="#d1d1d4"/><path d="m257.703125 170.640625-93.027344 98.191406h96.683594v-98.191406zm0 0" fill="#f4f4f5"/><path d="m157.035156 170.640625-93.027344 98.191406h100.667969l93.027344-98.191406zm0 0" fill="#5b6aa5"/><path d="m30.621094 170.640625c-8.679688 0-15.742188 7.058594-15.742188 15.742187v74.578126c0 4.347656 3.523438 7.871093 7.871094 7.871093h41.257812l93.027344-98.191406zm0 0" fill="#f4f4f5"/><path d="m28.953125 185.027344c-3.105469 0-6.140625-.921875-8.777344-2.703125-3.492187-2.355469-5.855469-5.917969-6.65625-10.039063l-12.730469-65.480468s0 0 0-.003907c-1.652343-8.519531 3.933594-16.800781 12.453126-18.457031l453-88.054688c8.523437-1.652343 16.804687 3.929688 18.460937 12.449219l12.726563 65.484375c.800781 4.117188-.054688 8.308594-2.410157 11.800782-2.355469 3.492187-5.921875 5.855468-10.039062 6.65625l-453.003907 88.054687c-1.007812.195313-2.019531.292969-3.023437.292969zm0 0" fill="#f4f4f5"/><path d="m497.429688 78.222656-12.726563-65.480468c-1.65625-8.523438-9.9375-14.105469-18.460937-12.449219l-123.773438 24.058593 110.054688 78.636719 32.457031-6.308593c4.117187-.796876 7.683593-3.164063 10.039062-6.652344 2.355469-3.492188 3.210938-7.683594 2.410157-11.804688zm0 0" fill="#d1d1d4"/><path d="m243.652344 43.558594 110.054687 78.636718 98.816407-19.207031-110.054688-78.636719zm0 0" fill="#32458f"/><path d="m243.652344 43.558594-3.910156.757812 18.738281 96.390625 95.226562-18.511719zm0 0" fill="#d1d1d4"/><path d="m144.832031 62.765625 110.054688 78.640625 3.59375-.699219-18.738281-96.390625zm0 0" fill="#f4f4f5"/><path d="m46.015625 81.972656 110.054687 78.640625 98.816407-19.207031-110.054688-78.640625zm0 0" fill="#5b6aa5"/><path d="m13.242188 88.34375c-8.519532 1.65625-14.105469 9.9375-12.453126 18.457031v.003907l12.730469 65.480468c.800781 4.121094 3.164063 7.683594 6.65625 10.039063 2.636719 1.78125 5.675781 2.703125 8.777344 2.703125 1.003906 0 2.015625-.097656 3.023437-.292969l124.09375-24.121094-110.054687-78.640625zm0 0" fill="#f4f4f5"/></svg>