<svg id="Layer_3" height="512" viewBox="0 0 64 64" width="512" xmlns="http://www.w3.org/2000/svg" data-name="Layer 3"><path d="m8.08 32h51.92v30h-51.92z" fill="#ccc"/><path d="m8.08 32v26h44.92a3 3 0 0 0 3-3v-23z" fill="#f2f2f2"/><path d="m12 36h44v22h-44z" fill="#686868"/><path d="m12 36v18h37a3 3 0 0 0 3-3v-15z" fill="#868686"/><rect fill="#9e9e9e" height="10" rx="3" width="22" x="18" y="39"/><path d="m6 24h56v8h-56z" fill="#474747"/><g fill="#686868"><path d="m6 24v5h45a3 3 0 0 0 3-3v-2z"/><path d="m33 32 8-8h-10l-8 8z"/><path d="m51 24-8 8h11l8-8z"/><path d="m13 32 8-8h-15v8z"/></g><path d="m21 24h-15v5h10z" fill="#868686"/><path d="m36 29 5-5h-10l-5 5z" fill="#868686"/><path d="m51 29a3 3 0 0 0 3-3v-2h-3l-5 5z" fill="#868686"/><path d="m6 9h56v8h-56z" fill="#474747" transform="matrix(.966 -.26 .26 .966 -2.212 9.299)"/><path d="m5.924 16.427 1.3 4.827 43.45-11.714a3 3 0 0 0 2.116-3.677l-.521-1.931z" fill="#686868"/><path d="m34.076 17.122 5.641-9.806-9.655 2.603-5.642 9.807z" fill="#686868"/><path d="m49.373 4.713-5.642 9.806 10.621-2.863 5.641-9.807z" fill="#686868"/><path d="m14.765 22.329 5.642-9.807-14.483 3.905 2.083 7.724z" fill="#686868"/><path d="m20.407 12.522-14.483 3.905 1.302 4.827 9.655-2.603z" fill="#868686"/><path d="m36.191 13.445 3.526-6.129-9.655 2.603-3.526 6.129z" fill="#868686"/><path d="m50.674 9.54a3 3 0 0 0 2.116-3.677l-.521-1.931-2.9.781-3.526 6.129z" fill="#868686"/><path d="m2 18h10v10h-10z" fill="#686868"/><circle cx="7" cy="23" fill="#939393" r="2"/><path d="m31 39v10l8-5z" fill="#aa2b24"/><path d="m36 42.125-5-3.125v6h3a2 2 0 0 0 2-2z" fill="#d24034"/><path d="m62 23h-46.514l46.848-12.319a1 1 0 0 0 .713-1.221l-2.034-7.737a1 1 0 0 0 -1.223-.713l-54.467 14.422a1 1 0 0 0 -.711 1.22l.088.348h-2.7a1 1 0 0 0 -1 1v10a1 1 0 0 0 1 1h3.08v3a1 1 0 0 0 1 1h1v29a1 1 0 0 0 1 1h51.92a1 1 0 0 0 1-1v-29h1a1 1 0 0 0 1-1v-8a1 1 0 0 0 -1-1zm-16.586 8 6-6h8.172l-6 6zm-30 0 6-6h7.172l-6 6zm16-6h7.172l-6 6h-7.172zm10 0h7.172l-6 6h-7.172zm1.637-11.316-6.937 1.824 4.252-7.287 6.946-1.839zm7-8.027 7.914-2.1-4.275 7.325-7.9 2.078zm-16.671 10.57-6.938 1.825 4.24-7.266 6.946-1.84zm-9.673 2.544-6.936 1.829 4.229-7.25 6.945-1.839zm32.716-8.6 3.269-5.6 1.166 4.429zm-38.162 3.904-4.225 7.239-1.036.273v-3.587a1 1 0 0 0 -1-1h-4.787zm-15.261 4.925h8v8h-8zm9 10a1 1 0 0 0 1-1v-3h5.586l-6 6h-5.506v-2zm47 32h-49.92v-28h49.92zm-2.586-30 4.586-4.586v4.586z"/><path d="m7 20a3 3 0 1 0 3 3 3 3 0 0 0 -3-3zm0 4a1 1 0 1 1 1-1 1 1 0 0 1 -1 1z"/><path d="m45 50a3 3 0 0 0 -2.816 2h-27.184v2h27.184a2.982 2.982 0 0 0 5.632 0h5.184v-2h-5.184a3 3 0 0 0 -2.816-2zm0 4a1 1 0 1 1 1-1 1 1 0 0 1 -1 1z"/><path d="m30.516 49.875a1 1 0 0 0 1.014-.027l8-5a1 1 0 0 0 0-1.7l-8-5a1 1 0 0 0 -1.53.852v10a1 1 0 0 0 .516.875zm1.484-9.07 5.113 3.195-5.113 3.2z"/><path d="m12 59h44a1 1 0 0 0 1-1v-22a1 1 0 0 0 -1-1h-44a1 1 0 0 0 -1 1v22a1 1 0 0 0 1 1zm1-22h42v20h-42z"/><path d="m52 39h-3v2h2v2h2v-3a1 1 0 0 0 -1-1z"/><path d="m17 41h2v-2h-3a1 1 0 0 0 -1 1v3h2z"/><path d="m51 45h2v2h-2z"/></svg>